<?xml version="1.0" standalone="no"?>
<!DOCTYPE svg PUBLIC "-//W3C//DTD SVG 20010904//EN"
 "http://www.w3.org/TR/2001/REC-SVG-20010904/DTD/svg10.dtd">
<svg version="1.0" xmlns="http://www.w3.org/2000/svg"
 width="500.000000pt" height="500.000000pt" viewBox="0 0 500.000000 500.000000"
 preserveAspectRatio="xMidYMid meet">

<g transform="translate(0.000000,500.000000) scale(0.100000,-0.100000)"
fill="#000000" stroke="none">
<path d="M4551 3670 c-10 -5 -9 -8 2 -13 7 -3 19 -2 26 3 10 5 9 8 -2 13 -7 3
-19 2 -26 -3z"/>
<path d="M4456 3624 c-27 -13 -72 -39 -100 -58 -28 -18 -69 -43 -91 -56 -68
-39 -115 -72 -111 -79 2 -3 -8 -7 -22 -8 -14 0 -32 -9 -39 -19 -7 -10 -13 -15
-13 -11 0 4 -19 -4 -42 -18 -24 -14 -68 -39 -100 -56 -31 -17 -65 -39 -75 -48
-10 -10 -23 -16 -29 -14 -5 2 -11 -15 -12 -38 -2 -26 1 -38 8 -34 5 3 10 1 10
-4 0 -6 -4 -11 -8 -11 -4 0 -8 -9 -9 -20 -2 -27 5 -25 60 10 26 17 55 30 63
30 9 0 36 14 61 30 24 17 48 30 52 30 12 0 18 -29 16 -68 -1 -18 -2 -76 -3
-130 l-2 -99 -50 -27 c-51 -28 -129 -92 -97 -80 15 5 17 0 17 -45 0 -28 -3
-50 -7 -49 -13 2 -43 -14 -43 -23 0 -6 9 -5 20 1 34 18 22 4 -20 -24 -22 -14
-40 -22 -40 -16 0 5 -7 7 -15 4 -12 -5 -15 2 -14 32 0 31 2 35 9 19 8 -17 9
-17 7 7 -1 15 -5 24 -9 22 -4 -3 -8 0 -8 5 0 6 5 11 10 11 6 0 10 4 10 9 0 22
-75 -13 -215 -101 l-60 -38 -3 70 c-3 72 8 100 40 100 7 0 28 14 46 31 30 28
32 35 32 95 0 35 -4 64 -10 64 -5 0 -32 -13 -60 -30 -64 -38 -84 -39 -76 -5 7
29 -13 34 -38 9 -22 -22 -20 -37 4 -31 13 3 20 0 20 -9 0 -8 -9 -14 -19 -14
-29 0 -71 18 -71 30 0 6 4 9 9 6 9 -6 24 35 15 43 -3 3 -10 -1 -15 -9 -9 -13
-10 -13 -6 0 2 8 12 15 23 16 10 1 33 2 50 3 27 1 32 5 30 26 -1 26 -16 36
-16 11 0 -8 -7 -17 -16 -20 -14 -5 -15 -4 -4 9 14 17 -152 -65 -187 -93 -18
-14 -23 -29 -25 -86 l-3 -69 -43 -15 c-23 -7 -40 -17 -38 -21 2 -3 -7 -11 -20
-18 -18 -8 -24 -8 -25 0 -1 7 -2 21 -3 32 -1 11 -3 30 -4 43 -1 12 -8 22 -16
22 -20 0 -206 -100 -236 -127 -2 -2 -5 -33 -5 -69 0 -53 3 -64 16 -64 9 0 22
7 29 15 7 8 21 15 31 15 11 0 19 4 19 8 0 5 12 15 28 23 47 24 106 63 119 79
10 12 12 -3 13 -76 l0 -90 -32 -18 c-18 -9 -64 -35 -103 -57 -38 -21 -80 -43
-92 -49 -20 -8 -22 -18 -25 -87 l-3 -78 -60 -37 c-33 -20 -63 -37 -67 -37 -4
-1 -8 34 -10 77 l-3 77 -34 2 c-21 1 -30 -2 -22 -7 8 -4 10 -13 7 -19 -5 -8
-12 -7 -22 4 -9 8 -23 15 -32 14 -11 0 -12 -2 -4 -6 6 -2 12 -9 12 -14 0 -6
-4 -7 -10 -4 -5 3 -10 1 -10 -4 0 -6 8 -11 18 -11 12 0 10 -4 -8 -13 -16 -8
-25 -22 -26 -37 -1 -14 -2 -52 -3 -85 l-1 -60 -60 -33 -59 -32 -3 77 -3 77
-59 33 c-32 18 -61 31 -65 29 -3 -2 -7 -30 -9 -62 -2 -32 -5 -60 -7 -63 -5 -4
-89 44 -122 69 -12 10 -19 21 -15 25 4 5 2 5 -4 2 -15 -9 -76 22 -69 34 4 5 0
7 -7 4 -10 -4 -12 8 -10 54 2 33 -1 68 -7 80 -12 22 -130 93 -143 85 -4 -3 -8
-36 -8 -74 l0 -69 -59 34 c-33 19 -62 35 -65 35 -3 0 -6 -31 -8 -69 l-3 -69
-55 32 -55 32 -3 76 -3 77 -65 35 c-35 20 -69 36 -74 36 -6 0 -10 -29 -10 -65
0 -36 -3 -65 -7 -64 -5 0 -28 13 -53 28 l-45 27 -7 85 c-3 46 -7 118 -7 159
l-1 75 -59 33 c-33 17 -62 32 -65 32 -3 0 -6 -31 -6 -70 0 -38 -3 -70 -7 -70
-5 0 -35 15 -68 33 l-60 32 -3 153 -3 153 -54 34 c-30 19 -59 35 -65 35 -7 0
-10 -73 -10 -220 0 -121 -2 -220 -5 -220 -3 0 -30 14 -60 31 l-55 31 0 79 0
79 -72 36 c-40 20 -101 52 -135 72 l-62 36 -3 80 -3 79 -62 39 -63 38 0 -75
c0 -41 -3 -75 -7 -75 -5 0 -30 14 -58 30 -27 16 -53 30 -57 30 -5 0 -8 -102
-8 -228 l0 -227 59 -33 58 -32 7 -141 c5 -87 4 -145 -2 -151 -6 -6 -24 -1 -48
14 -82 51 -74 110 -74 -561 0 -467 3 -601 13 -609 6 -5 35 -22 62 -36 28 -15
79 -45 114 -67 34 -21 65 -39 67 -39 2 0 4 29 4 65 0 36 2 65 5 65 2 0 26 -13
52 -28 81 -47 78 -48 75 29 -3 45 0 69 7 69 6 0 36 -14 66 -31 l55 -31 0 -69
c0 -38 -3 -69 -7 -69 -5 0 -28 11 -52 25 -69 40 -77 36 -74 -37 1 -39 7 -66
15 -71 7 -4 45 -26 83 -48 39 -23 118 -70 176 -105 59 -35 111 -64 117 -64 6
0 8 23 5 60 -3 33 -2 60 3 60 5 0 36 -14 69 -31 l60 -30 5 -71 5 -71 50 -26
c28 -15 72 -40 100 -57 27 -16 66 -38 85 -49 76 -44 104 -61 149 -91 69 -46
323 -190 329 -186 3 2 8 0 11 -6 3 -5 26 -20 51 -34 71 -40 130 -76 205 -124
112 -71 185 -106 210 -100 22 6 164 88 260 151 28 18 82 49 120 70 118 63 367
206 424 243 30 20 84 52 120 72 132 73 441 250 651 372 173 100 363 207 490
277 13 7 15 142 17 1104 1 672 -2 1099 -8 1102 -5 4 -9 2 -9 -4 0 -6 -7 -8
-15 -5 -9 4 -15 0 -15 -9 0 -9 -5 -19 -11 -23 -7 -4 -9 2 -7 17 2 16 -3 25
-14 27 -12 2 -16 -3 -14 -20 1 -13 5 -29 9 -35 4 -5 -2 -18 -13 -28 -16 -14
-23 -16 -32 -7 -9 9 -9 12 1 12 8 0 11 6 7 15 -3 8 -1 15 4 15 7 0 8 35 4 94
-5 90 -5 94 17 110 35 24 11 19 -45 -10z m134 -190 c0 -2 -7 -4 -15 -4 -8 0
-15 4 -15 10 0 5 7 7 15 4 8 -4 15 -8 15 -10z m-266 -48 c-3 -8 0 -17 6 -21 8
-5 7 -11 -2 -23 -10 -12 -10 -16 0 -19 22 -8 13 -42 -15 -59 -16 -9 -40 -25
-55 -35 -15 -11 -30 -19 -33 -19 -3 0 -4 21 -2 48 2 33 6 46 16 44 8 -2 11 3
8 11 -4 11 0 13 15 9 15 -4 19 -2 13 7 -4 8 4 24 21 42 31 33 36 35 28 15z
m-846 -461 c-2 -1 -13 -8 -25 -14 -20 -10 -23 -9 -23 7 0 15 5 18 25 14 14 -2
25 -6 23 -7z m-2574 -120 c11 -12 16 -35 16 -81 0 -35 -3 -64 -6 -64 -4 0 -33
14 -64 32 l-59 32 -3 69 c-2 38 -1 70 1 72 5 6 97 -42 115 -60z m2505 -157 c2
-57 -9 -88 -31 -88 -5 0 -7 4 -3 9 3 5 0 13 -6 17 -8 4 -9 3 -5 -4 4 -7 1 -12
-6 -12 -10 0 -10 -2 1 -9 11 -7 7 -13 -17 -25 -38 -20 -52 -21 -26 -2 10 8 16
18 11 22 -4 4 -7 2 -7 -4 0 -7 -4 -12 -9 -12 -4 0 -9 27 -10 60 -1 39 2 60 10
60 6 0 9 7 5 15 -4 12 0 14 19 9 26 -6 55 14 55 38 0 11 2 11 9 0 4 -7 9 -41
10 -74z m-2567 -259 l78 -44 0 -72 c0 -40 -3 -73 -7 -73 -5 0 -44 23 -88 50
-44 28 -99 60 -122 72 l-43 22 0 74 0 73 53 -29 c28 -16 87 -49 129 -73z m153
61 l52 -30 2 -71 c1 -39 -2 -69 -6 -67 -5 1 -32 16 -61 32 l-52 29 0 69 c0 37
3 68 6 68 4 0 30 -14 59 -30z m2155 -97 c0 -77 -1 -78 -31 -96 -17 -9 -36 -14
-42 -10 -7 3 -9 3 -5 -2 7 -8 -19 -34 -34 -35 -5 0 -8 33 -8 73 0 66 2 75 23
85 30 16 58 35 75 50 7 6 15 12 18 12 2 0 4 -35 4 -77z m-1692 -169 c59 -35
110 -64 115 -64 8 0 10 -134 1 -142 -3 -4 -61 28 -130 69 l-124 75 0 69 c0 81
-11 81 138 -7z m359 -205 c37 -23 87 -53 111 -68 l42 -26 0 -72 0 -72 -125 72
-125 71 0 74 c0 85 -6 84 97 21z m-769 -238 c2 -39 0 -71 -3 -71 -6 0 -113 58
-160 87 -11 7 -28 16 -37 19 -10 3 -18 10 -18 15 0 5 -9 9 -20 9 -18 0 -20 7
-20 79 l0 80 128 -73 127 -74 3 -71z m1396 27 l56 -32 0 -73 0 -74 -43 25
c-92 50 -87 44 -87 118 0 38 4 68 9 68 5 0 34 -14 65 -32z m-1151 -96 c26 -11
27 -15 27 -82 0 -38 -2 -70 -5 -70 -9 0 -99 48 -117 63 -14 11 -18 29 -18 74
0 33 3 62 6 66 3 3 23 -4 43 -16 20 -13 48 -28 64 -35z m-208 -31 c3 -6 26
-20 50 -32 l45 -23 0 -73 c0 -40 -3 -73 -7 -73 -5 0 -33 15 -63 33 l-55 33 -3
72 c-2 58 0 72 12 72 8 0 17 -4 21 -9z m693 -249 l62 -36 0 -73 0 -73 -77 43
c-43 23 -102 56 -130 72 l-53 30 0 73 0 74 68 -37 c37 -21 95 -54 130 -73z
m-522 -5 l59 -33 3 -63 c2 -35 -1 -67 -5 -71 -4 -4 -36 8 -70 27 l-63 35 0 69
c0 38 4 69 9 69 5 0 35 -15 67 -33z m872 -45 l112 -64 0 -69 c0 -49 -4 -69
-12 -68 -7 0 -65 31 -128 68 l-115 67 -3 72 c-3 85 -16 85 146 -6z m204 -274
c21 -15 28 -29 33 -73 7 -55 0 -98 -13 -80 -4 6 -29 22 -57 37 l-50 27 -2 70
-1 70 31 -16 c18 -8 44 -24 59 -35z m-494 -237 c2 -39 0 -71 -3 -71 -4 0 -31
15 -61 32 l-54 33 0 72 0 72 58 -33 57 -34 3 -71z m513 -76 c52 -31 106 -61
121 -68 27 -12 28 -14 28 -90 l0 -78 -29 20 c-16 12 -37 24 -47 28 -11 5 -51
27 -91 51 -39 23 -76 42 -82 42 -7 0 -11 -25 -11 -65 0 -36 -2 -65 -4 -65 -3
0 -32 16 -65 35 l-61 36 0 69 c0 39 2 70 4 70 2 0 30 -16 61 -35 32 -19 62
-32 67 -29 4 3 6 34 3 70 -2 35 -1 64 4 64 5 0 51 -25 102 -55z"/>
<path d="M4245 3260 c3 -5 10 -10 16 -10 5 0 9 5 9 10 0 6 -7 10 -16 10 -8 0
-12 -4 -9 -10z"/>
<path d="M4517 3533 c-12 -12 -7 -33 8 -33 17 0 19 9 7 28 -5 7 -11 9 -15 5z"/>
<path d="M4545 3530 c3 -5 8 -10 11 -10 2 0 4 5 4 10 0 6 -5 10 -11 10 -5 0
-7 -4 -4 -10z"/>
<path d="M3180 2860 c-9 -6 -10 -10 -3 -10 6 0 15 5 18 10 8 12 4 12 -15 0z"/>
<path d="M3910 2821 c0 -6 5 -13 10 -16 6 -3 10 1 10 9 0 9 -4 16 -10 16 -5 0
-10 -4 -10 -9z"/>
<path d="M3858 2713 c7 -3 16 -2 19 1 4 3 -2 6 -13 5 -11 0 -14 -3 -6 -6z"/>
<path d="M2241 2571 c-1 -60 -1 -60 41 -89 24 -16 52 -32 64 -36 19 -6 20 -3
18 55 -1 34 -6 65 -11 68 -36 26 -94 61 -101 61 -5 0 -10 -27 -11 -59z"/>
<path d="M2716 2452 c-8 -7 6 -32 15 -26 5 3 9 -2 9 -10 0 -8 -4 -18 -10 -21
-5 -3 -10 -1 -10 6 0 7 -3 10 -6 6 -10 -10 6 -26 21 -21 19 8 17 71 -2 71 -7
0 -15 -2 -17 -5z"/>
<path d="M2647 2414 c-4 -4 -7 -14 -7 -23 0 -11 3 -12 11 -4 6 6 10 16 7 23
-2 6 -7 8 -11 4z"/>
<path d="M2200 2260 c-8 -5 -10 -10 -5 -10 6 0 17 5 25 10 8 5 11 10 5 10 -5
0 -17 -5 -25 -10z"/>
</g>
</svg>
